<?xml version="1.0" encoding="iso-8859-1"?>
<!-- Generator: Adobe Illustrator 19.0.0, SVG Export Plug-In . SVG Version: 6.00 Build 0)  -->
<svg version="1.1" id="Layer_1" fill="#ffffff" xmlns="http://www.w3.org/2000/svg" xmlns:xlink="http://www.w3.org/1999/xlink" x="0px" y="0px"
	 viewBox="0 0 512.035 512.035" style="enable-background:new 0 0 512.035 512.035;" xml:space="preserve">
<g>
	<g>
		<path d="M509.457,250.027L261.991,2.56c-3.413-3.413-8.533-3.413-11.947,0L2.577,250.027c-1.707,1.707-2.56,3.413-2.56,5.973
			v247.467c0,3.413,1.707,6.827,5.12,7.68c3.413,1.707,6.827,0.853,9.387-1.707l241.493-241.493L497.511,509.44
			c1.707,1.707,3.413,2.56,5.973,2.56c0.853,0,2.56,0,3.413-0.853c3.413-0.853,5.12-4.267,5.12-7.68V256
			C512.017,253.44,511.164,251.733,509.457,250.027z M494.951,482.987l-232.96-232.96c-1.707-1.707-3.413-2.56-5.973-2.56
			s-4.267,0.853-5.973,2.56l-232.96,232.96V259.413L256.017,20.48l238.933,238.933V482.987z"/>
	</g>
</g>
<g>
</g>
<g>
</g>
<g>
</g>
<g>
</g>
<g>
</g>
<g>
</g>
<g>
</g>
<g>
</g>
<g>
</g>
<g>
</g>
<g>
</g>
<g>
</g>
<g>
</g>
<g>
</g>
<g>
</g>
</svg>
